<svg xmlns="http://www.w3.org/2000/svg" xmlns:xlink="http://www.w3.org/1999/xlink" width="400" height="400" viewBox="0, 0, 400,400"><path d="M0.000 200.000 L 0.000 400.000 200.000 400.000 L 400.000 400.000 400.000 200.000 L 400.000 0.000 200.000 0.000 L 0.000 0.000 0.000 200.000 M383.333 200.000 L 383.333 383.333 200.000 383.333 L 16.667 383.333 16.667 200.000 L 16.667 16.667 200.000 16.667 L 383.333 16.667 383.333 200.000 M90.000 118.333 L 90.000 160.000 133.333 160.000 L 176.667 160.000 176.667 118.333 L 176.667 76.667 133.333 76.667 L 90.000 76.667 90.000 118.333 M223.333 118.333 L 223.333 160.000 265.000 160.000 L 306.667 160.000 306.667 118.333 L 306.667 76.667 265.000 76.667 L 223.333 76.667 223.333 118.333 M160.000 118.333 L 160.000 143.333 133.333 143.333 L 106.667 143.333 106.667 118.333 L 106.667 93.333 133.333 93.333 L 160.000 93.333 160.000 118.333 M290.000 118.333 L 290.000 143.333 265.000 143.333 L 240.000 143.333 240.000 118.333 L 240.000 93.333 265.000 93.333 L 290.000 93.333 290.000 118.333 M66.667 236.667 L 66.667 276.667 198.333 276.667 L 330.000 276.667 330.000 236.667 L 330.000 196.667 198.333 196.667 L 66.667 196.667 66.667 236.667 M313.333 236.667 L 313.333 260.000 198.333 260.000 L 83.333 260.000 83.333 236.667 L 83.333 213.333 198.333 213.333 L 313.333 213.333 313.333 236.667 " stroke="none" fill="#fff" fill-rule="evenodd"></path></svg>